<svg xmlns="http://www.w3.org/2000/svg" viewBox="0 0 400 385" width="400" height="385" role="img" aria-label="Temple of the Golden Light lock-up, antique gold"><defs><linearGradient id="lux" x1="0" y1="0" x2="0.9" y2="1"><stop offset="0" stop-color="#CDB079"></stop><stop offset="0.5" stop-color="#B4924E"></stop><stop offset="1" stop-color="#8C6C34"></stop></linearGradient></defs>
  <g transform="translate(100,30)">
  <circle cx="100" cy="100" r="62" fill="none" stroke="url(#lux)" stroke-width="1.6"></circle>
  <g fill="none" stroke="url(#lux)" stroke-width="1.4" stroke-linecap="round">
    <path d="M 52 128 A 48 48 0 0 1 148 128"></path>
    <path d="M 65 128 A 35 35 0 0 1 135 128"></path>
    <path d="M 78 128 A 22 22 0 0 1 122 128"></path>
    <line x1="46" y1="128" x2="88" y2="128"></line>
    <line x1="112" y1="128" x2="154" y2="128"></line>
  </g>
  <circle cx="100" cy="120" r="8" fill="url(#lux)"></circle>
  </g>
  <path d="M106.80 314.36L106.80 295.71Q104.49 295.71 102.64 295.92Q100.78 296.12 99.44 296.36L99.44 296.36Q97.87 296.65 96.64 297L96.64 297L97.21 293.84Q97.44 293.86 97.91 293.88Q98.38 293.89 98.96 293.91Q99.53 293.93 100.17 293.94Q100.80 293.95 101.37 293.96Q101.94 293.97 102.38 293.98Q102.81 293.99 103.01 293.99L103.01 293.99L114.16 293.99Q114.36 293.99 114.80 293.98Q115.24 293.97 115.80 293.96Q116.37 293.95 117.00 293.94Q117.64 293.93 118.21 293.91Q118.79 293.89 119.26 293.88Q119.73 293.86 119.96 293.84L119.96 293.84L120.53 297Q119.28 296.65 117.72 296.36L117.72 296.36Q116.37 296.12 114.51 295.92Q112.66 295.71 110.35 295.71L110.35 295.71L110.35 314.36Q110.35 316.02 110.40 317.26Q110.45 318.50 110.52 319.40Q110.59 320.30 110.70 320.91Q110.80 321.51 110.92 321.92L110.92 321.92L110.92 322L106.25 322L106.25 321.92Q106.37 321.51 106.47 320.91Q106.56 320.30 106.64 319.40Q106.72 318.50 106.76 317.26Q106.80 316.02 106.80 314.36L106.80 314.36ZM136.12 293.99L136.12 293.99Q138.56 293.99 140.98 293.97Q143.39 293.95 145.40 293.92Q147.41 293.89 148.84 293.84Q150.26 293.78 150.77 293.68L150.77 293.68L149.81 296.28Q149.17 296.10 148.31 295.96L148.31 295.96Q147.57 295.85 146.50 295.74Q145.44 295.63 144.05 295.63L144.05 295.63Q143.58 295.63 142.93 295.66Q142.27 295.69 141.67 295.73L141.67 295.73Q140.97 295.77 140.24 295.81L140.24 295.81L140.24 306.47Q142.26 306.45 143.88 306.36Q145.50 306.26 146.63 306.16L146.63 306.16Q147.96 306.04 148.97 305.89L148.97 305.89L148.37 308.72Q147.02 308.54 145.61 308.39L145.61 308.39Q144.40 308.25 142.98 308.14Q141.55 308.04 140.24 308.04L140.24 308.04L140.24 320.28Q142.55 320.28 144.48 320.09Q146.42 319.89 147.86 319.64L147.86 319.64Q149.54 319.36 150.93 318.99L150.93 318.99L150.36 322.16Q150.13 322.14 149.66 322.12Q149.19 322.10 148.61 322.08Q148.04 322.06 147.40 322.05Q146.77 322.04 146.20 322.03Q145.63 322.02 145.19 322.01Q144.76 322 144.56 322L144.56 322L136.12 322L136.12 321.92Q136.24 321.51 136.35 320.91Q136.45 320.30 136.53 319.40Q136.61 318.50 136.65 317.26Q136.69 316.02 136.69 314.36L136.69 314.36L136.69 301.65Q136.69 299.99 136.65 298.75Q136.61 297.51 136.53 296.60Q136.45 295.69 136.35 295.09Q136.24 294.48 136.12 294.07L136.12 294.07L136.12 293.99ZM167.14 322L167.14 321.92Q167.36 321.61 167.63 320.99Q167.91 320.38 168.06 319.44L168.06 319.44Q168.28 318.07 168.54 316.37Q168.81 314.66 169.09 312.78Q169.37 310.91 169.65 308.94Q169.94 306.98 170.20 305.08Q170.47 303.17 170.71 301.40Q170.95 299.64 171.15 298.17Q171.34 296.71 171.47 295.62Q171.60 294.54 171.66 293.99L171.66 293.99L174.14 293.99L186.42 316.96L198.61 293.99L200.47 293.99L203.67 317.20Q203.81 318.29 203.96 319.07Q204.12 319.85 204.27 320.41Q204.43 320.96 204.58 321.33Q204.72 321.69 204.86 321.92L204.86 321.92L204.86 322L199.94 322L199.94 321.92Q200.04 321.71 200.12 321.22Q200.21 320.73 200.21 320.05L200.21 320.05Q200.21 319.79 200.19 319.53Q200.17 319.27 200.13 318.95L200.13 318.95L197.65 300.24L186.13 321.92L184.78 321.77L173.18 300.05Q172.50 304.68 171.99 308.60L171.99 308.60Q171.77 310.28 171.56 311.95Q171.34 313.62 171.18 315.07Q171.01 316.51 170.91 317.62Q170.82 318.72 170.82 319.25L170.82 319.25Q170.82 319.91 170.86 320.42Q170.89 320.93 170.93 321.28L170.93 321.28Q170.99 321.69 171.05 322L171.05 322L167.14 322ZM226.18 295.52L226.18 309.60Q228.09 309.95 229.68 309.67Q231.27 309.38 232.42 308.46Q233.56 307.53 234.19 305.95Q234.83 304.36 234.83 302.08L234.83 302.08Q234.83 300.50 234.50 299.20Q234.16 297.90 233.51 296.99Q232.86 296.08 231.86 295.58Q230.86 295.09 229.53 295.09L229.53 295.09Q228.69 295.09 228.07 295.15Q227.44 295.22 227.02 295.30L227.02 295.30Q226.51 295.40 226.18 295.52L226.18 295.52ZM222.05 294.07L222.05 293.99Q222.44 294.03 222.87 294.07L222.87 294.07Q223.25 294.11 223.70 294.12Q224.16 294.13 224.65 294.13L224.65 294.13Q225.41 294.13 226.71 293.94Q228.01 293.76 230.02 293.76L230.02 293.76Q231.90 293.76 233.49 294.30Q235.08 294.85 236.25 295.91Q237.43 296.96 238.08 298.47Q238.73 299.99 238.73 301.92L238.73 301.92Q238.73 304.52 237.70 306.41Q236.66 308.31 234.93 309.48Q233.19 310.65 230.92 311.07Q228.66 311.49 226.18 311.12L226.18 311.12L226.18 314.36Q226.18 316.02 226.22 317.26Q226.27 318.50 226.34 319.40Q226.41 320.30 226.52 320.91Q226.62 321.51 226.74 321.92L226.74 321.92L226.74 322L222.05 322L222.05 321.92Q222.17 321.51 222.28 320.91Q222.39 320.30 222.46 319.40Q222.54 318.50 222.58 317.26Q222.62 316.02 222.62 314.36L222.62 314.36L222.62 301.65Q222.62 299.99 222.58 298.75Q222.54 297.51 222.46 296.60Q222.39 295.69 222.28 295.09Q222.17 294.48 222.05 294.07L222.05 294.07ZM259.46 301.65L259.46 320.28Q261.77 320.28 263.70 320.09Q265.64 319.89 267.08 319.64L267.08 319.64Q268.76 319.36 270.15 318.99L270.15 318.99L269.58 322.16Q269.35 322.14 268.88 322.12Q268.41 322.10 267.83 322.08Q267.26 322.06 266.62 322.05Q265.99 322.04 265.42 322.03Q264.85 322.02 264.41 322.01Q263.98 322 263.78 322L263.78 322L255.34 322L255.34 321.92Q255.46 321.51 255.57 320.91Q255.67 320.30 255.75 319.40Q255.83 318.50 255.87 317.26Q255.91 316.02 255.91 314.36L255.91 314.36L255.91 301.65Q255.91 299.99 255.87 298.75Q255.83 297.51 255.75 296.60Q255.67 295.69 255.57 295.09Q255.46 294.48 255.34 294.07L255.34 294.07L255.34 293.99L260.03 293.99L260.03 294.07Q259.91 294.48 259.81 295.09Q259.70 295.69 259.63 296.60Q259.56 297.51 259.51 298.75Q259.46 299.99 259.46 301.65L259.46 301.65ZM286.54 293.99L286.54 293.99Q288.98 293.99 291.39 293.97Q293.81 293.95 295.82 293.92Q297.83 293.89 299.26 293.84Q300.68 293.78 301.19 293.68L301.19 293.68L300.23 296.28Q299.59 296.10 298.73 295.96L298.73 295.96Q297.99 295.85 296.92 295.74Q295.86 295.63 294.47 295.63L294.47 295.63Q294.00 295.63 293.35 295.66Q292.69 295.69 292.09 295.73L292.09 295.73Q291.38 295.77 290.66 295.81L290.66 295.81L290.66 306.47Q292.67 306.45 294.29 306.36Q295.92 306.26 297.05 306.16L297.05 306.16Q298.38 306.04 299.39 305.89L299.39 305.89L298.79 308.72Q297.44 308.54 296.03 308.39L296.03 308.39Q294.82 308.25 293.40 308.14Q291.97 308.04 290.66 308.04L290.66 308.04L290.66 320.28Q292.97 320.28 294.90 320.09Q296.83 319.89 298.28 319.64L298.28 319.64Q299.96 319.36 301.35 318.99L301.35 318.99L300.78 322.16Q300.54 322.14 300.08 322.12Q299.61 322.10 299.03 322.08Q298.46 322.06 297.82 322.05Q297.19 322.04 296.62 322.03Q296.05 322.02 295.61 322.01Q295.17 322 294.98 322L294.98 322L286.54 322L286.54 321.92Q286.66 321.51 286.77 320.91Q286.87 320.30 286.95 319.40Q287.03 318.50 287.07 317.26Q287.11 316.02 287.11 314.36L287.11 314.36L287.11 301.65Q287.11 299.99 287.07 298.75Q287.03 297.51 286.95 296.60Q286.87 295.69 286.77 295.09Q286.66 294.48 286.54 294.07L286.54 294.07L286.54 293.99Z" fill="url(#lux)"></path>
  <path d="M58.72 340.97L58.72 340.97Q59.98 340.97 61.05 341.38Q62.12 341.79 62.90 342.54Q63.68 343.28 64.12 344.33Q64.56 345.37 64.56 346.63L64.56 346.63Q64.56 347.35 64.39 348.05Q64.23 348.75 63.90 349.37Q63.58 349.99 63.11 350.51Q62.64 351.04 62.04 351.42Q61.44 351.80 60.71 352.02Q59.99 352.23 59.15 352.23L59.15 352.23Q57.88 352.23 56.81 351.83Q55.74 351.42 54.96 350.68Q54.18 349.94 53.74 348.90Q53.30 347.86 53.30 346.59L53.30 346.59Q53.30 345.87 53.47 345.17Q53.64 344.48 53.96 343.85Q54.28 343.22 54.75 342.69Q55.21 342.17 55.81 341.78Q56.42 341.40 57.15 341.18Q57.88 340.97 58.72 340.97ZM59.15 351.55L59.15 351.55Q59.99 351.55 60.68 351.25Q61.38 350.95 61.88 350.37Q62.39 349.80 62.67 348.97Q62.95 348.14 62.95 347.09L62.95 347.09Q62.95 345.92 62.68 344.93Q62.41 343.93 61.88 343.20Q61.35 342.47 60.56 342.06Q59.77 341.65 58.72 341.65L58.72 341.65Q57.88 341.65 57.18 341.95Q56.48 342.24 55.98 342.81Q55.48 343.38 55.20 344.20Q54.92 345.03 54.92 346.08L54.92 346.08Q54.92 347.24 55.18 348.24Q55.45 349.25 55.98 349.98Q56.51 350.71 57.30 351.13Q58.10 351.55 59.15 351.55ZM74.99 346.28L74.99 349.04Q74.99 349.68 75.01 350.16Q75.03 350.65 75.05 350.99Q75.08 351.34 75.12 351.58Q75.16 351.81 75.21 351.97L75.21 351.97L75.21 352L73.39 352L73.39 351.97Q73.44 351.81 73.48 351.58Q73.52 351.34 73.55 350.99Q73.58 350.65 73.60 350.16Q73.61 349.68 73.61 349.04L73.61 349.04L73.61 344.11Q73.61 343.47 73.60 342.99Q73.58 342.51 73.55 342.16Q73.52 341.81 73.48 341.57Q73.44 341.34 73.39 341.18L73.39 341.18L73.39 341.15Q74.02 341.15 74.66 341.14Q75.31 341.14 75.91 341.14Q76.52 341.13 77.06 341.12Q77.61 341.11 78.05 341.10Q78.49 341.09 78.79 341.07Q79.09 341.05 79.22 341.03L79.22 341.03L78.85 342.03Q78.60 341.96 78.27 341.91L78.27 341.91Q77.98 341.87 77.57 341.82Q77.15 341.78 76.62 341.78L76.62 341.78Q76.43 341.78 76.16 341.79Q75.89 341.81 75.62 341.82L75.62 341.82Q75.32 341.84 74.99 341.85L74.99 341.85L74.99 345.67Q75.77 345.67 76.42 345.63Q77.07 345.59 77.54 345.55L77.54 345.55Q78.08 345.51 78.52 345.45L78.52 345.45L78.30 346.54Q77.73 346.48 77.15 346.41L77.15 346.41Q76.65 346.36 76.07 346.32Q75.50 346.28 74.99 346.28L74.99 346.28ZM102.37 349.04L102.37 341.81Q101.48 341.81 100.76 341.89Q100.04 341.97 99.52 342.06L99.52 342.06Q98.91 342.18 98.44 342.31L98.44 342.31L98.66 341.09Q98.75 341.09 98.93 341.10Q99.11 341.11 99.33 341.12Q99.56 341.12 99.80 341.13Q100.05 341.13 100.27 341.14Q100.49 341.14 100.66 341.14Q100.83 341.15 100.90 341.15L100.90 341.15L105.23 341.15Q105.30 341.15 105.47 341.14Q105.64 341.14 105.86 341.14Q106.08 341.13 106.33 341.13Q106.57 341.12 106.80 341.12Q107.02 341.11 107.20 341.10Q107.38 341.09 107.47 341.09L107.47 341.09L107.69 342.31Q107.21 342.18 106.60 342.06L106.60 342.06Q106.08 341.97 105.36 341.89Q104.64 341.81 103.75 341.81L103.75 341.81L103.75 349.04Q103.75 349.68 103.77 350.16Q103.79 350.65 103.81 350.99Q103.84 351.34 103.88 351.58Q103.92 351.81 103.97 351.97L103.97 351.97L103.97 352L102.16 352L102.16 351.97Q102.21 351.81 102.24 351.58Q102.28 351.34 102.31 350.99Q102.34 350.65 102.36 350.16Q102.37 349.68 102.37 349.04L102.37 349.04ZM123.41 349.04L123.41 346.81Q123.11 346.80 122.66 346.80Q122.20 346.79 121.67 346.79Q121.13 346.78 120.56 346.77Q119.98 346.77 119.42 346.77Q118.87 346.76 118.37 346.77Q117.87 346.78 117.50 346.79L117.50 346.79L117.50 349.04Q117.50 349.68 117.52 350.16Q117.54 350.65 117.57 350.99Q117.59 351.34 117.63 351.58Q117.68 351.81 117.72 351.97L117.72 351.97L117.72 352L115.90 352L115.90 351.97Q115.95 351.81 115.99 351.58Q116.03 351.34 116.06 350.99Q116.09 350.65 116.11 350.16Q116.12 349.68 116.12 349.04L116.12 349.04L116.12 344.11Q116.12 343.47 116.11 342.99Q116.09 342.51 116.06 342.16Q116.03 341.81 115.99 341.57Q115.95 341.34 115.90 341.18L115.90 341.18L115.90 341.15L117.72 341.15L117.72 341.18Q117.68 341.34 117.63 341.57Q117.59 341.81 117.57 342.16Q117.54 342.51 117.52 342.99Q117.50 343.47 117.50 344.11L117.50 344.11L117.50 346.05Q117.90 346.07 118.39 346.07Q118.89 346.07 119.44 346.07Q119.98 346.07 120.55 346.06Q121.11 346.05 121.64 346.04Q122.16 346.03 122.62 346.01Q123.08 346.00 123.41 345.98L123.41 345.98L123.41 344.11Q123.41 343.47 123.39 342.99Q123.37 342.51 123.35 342.16Q123.32 341.81 123.28 341.57Q123.24 341.34 123.19 341.18L123.19 341.18L123.19 341.15L125.01 341.15L125.01 341.18Q124.96 341.34 124.92 341.57Q124.88 341.81 124.85 342.16Q124.82 342.51 124.81 342.99Q124.79 343.47 124.79 344.11L124.79 344.11L124.79 349.04Q124.79 349.68 124.81 350.16Q124.82 350.65 124.85 350.99Q124.88 351.34 124.92 351.58Q124.96 351.81 125.01 351.97L125.01 351.97L125.01 352L123.19 352L123.19 351.97Q123.24 351.81 123.28 351.58Q123.32 351.34 123.35 350.99Q123.37 350.65 123.39 350.16Q123.41 349.68 123.41 349.04L123.41 349.04ZM134.30 341.15L134.30 341.15Q135.25 341.15 136.18 341.14Q137.12 341.13 137.90 341.12Q138.68 341.11 139.23 341.09Q139.78 341.06 139.98 341.03L139.98 341.03L139.61 342.03Q139.36 341.96 139.03 341.91L139.03 341.91Q138.74 341.87 138.33 341.82Q137.91 341.78 137.38 341.78L137.38 341.78Q137.20 341.78 136.94 341.79Q136.69 341.81 136.45 341.82L136.45 341.82Q136.18 341.84 135.90 341.85L135.90 341.85L135.90 345.98Q136.68 345.98 137.31 345.94Q137.94 345.90 138.38 345.86L138.38 345.86Q138.89 345.82 139.28 345.76L139.28 345.76L139.05 346.85Q138.53 346.79 137.98 346.72L137.98 346.72Q137.51 346.67 136.96 346.63Q136.41 346.59 135.90 346.59L135.90 346.59L135.90 351.33Q136.79 351.33 137.54 351.26Q138.29 351.18 138.85 351.08L138.85 351.08Q139.50 350.98 140.04 350.83L140.04 350.83L139.82 352.06Q139.73 352.05 139.55 352.05Q139.37 352.04 139.14 352.03Q138.92 352.02 138.67 352.02Q138.43 352.02 138.21 352.01Q137.99 352.01 137.82 352.00Q137.65 352 137.57 352L137.57 352L134.30 352L134.30 351.97Q134.35 351.81 134.39 351.58Q134.43 351.34 134.46 350.99Q134.49 350.65 134.51 350.16Q134.52 349.68 134.52 349.04L134.52 349.04L134.52 344.11Q134.52 343.47 134.51 342.99Q134.49 342.51 134.46 342.16Q134.43 341.81 134.39 341.57Q134.35 341.34 134.30 341.18L134.30 341.18L134.30 341.15ZM170.36 350.42L170.36 350.73Q170.36 350.81 170.34 350.90Q170.32 350.99 170.26 351.05L170.26 351.05Q169.91 351.31 169.52 351.53Q169.12 351.74 168.66 351.90Q168.20 352.06 167.66 352.15Q167.13 352.23 166.52 352.23L166.52 352.23Q165.14 352.23 164.00 351.83Q162.87 351.42 162.05 350.68Q161.24 349.94 160.79 348.90Q160.35 347.86 160.35 346.59L160.35 346.59Q160.35 345.87 160.53 345.17Q160.72 344.48 161.07 343.85Q161.43 343.22 161.95 342.69Q162.47 342.17 163.14 341.78Q163.81 341.40 164.62 341.18Q165.43 340.97 166.36 340.97L166.36 340.97Q166.73 340.97 167.11 341.00Q167.49 341.03 167.86 341.10Q168.23 341.16 168.57 341.25Q168.92 341.34 169.23 341.46L169.23 341.46L169.74 342.86L169.68 342.89Q169.38 342.62 169.00 342.40Q168.61 342.17 168.17 342.00Q167.73 341.84 167.25 341.74Q166.77 341.65 166.28 341.65L166.28 341.65Q165.33 341.65 164.53 341.95Q163.74 342.24 163.17 342.81Q162.60 343.38 162.28 344.20Q161.96 345.03 161.96 346.08L161.96 346.08Q161.96 347.24 162.26 348.23Q162.57 349.22 163.16 349.95Q163.76 350.68 164.66 351.09Q165.56 351.50 166.75 351.50L166.75 351.50Q167.28 351.50 167.70 351.42Q168.11 351.33 168.40 351.21Q168.69 351.08 168.84 350.94Q168.98 350.79 168.98 350.67L168.98 350.67L168.98 350.37Q168.98 349.84 168.97 349.46Q168.95 349.07 168.92 348.79Q168.89 348.50 168.85 348.30Q168.82 348.09 168.76 347.92L168.76 347.92L168.76 347.89L170.58 347.89L170.58 347.92Q170.54 348.08 170.49 348.30Q170.45 348.51 170.42 348.81Q170.39 349.10 170.38 349.50Q170.36 349.90 170.36 350.42L170.36 350.42ZM184.39 340.97L184.39 340.97Q185.66 340.97 186.73 341.38Q187.80 341.79 188.58 342.54Q189.36 343.28 189.80 344.33Q190.24 345.37 190.24 346.63L190.24 346.63Q190.24 347.35 190.07 348.05Q189.90 348.75 189.58 349.37Q189.26 349.99 188.79 350.51Q188.32 351.04 187.72 351.42Q187.12 351.80 186.39 352.02Q185.66 352.23 184.82 352.23L184.82 352.23Q183.56 352.23 182.49 351.83Q181.42 351.42 180.64 350.68Q179.86 349.94 179.42 348.90Q178.98 347.86 178.98 346.59L178.98 346.59Q178.98 345.87 179.15 345.17Q179.32 344.48 179.64 343.85Q179.96 343.22 180.42 342.69Q180.89 342.17 181.49 341.78Q182.09 341.40 182.82 341.18Q183.55 340.97 184.39 340.97ZM184.82 351.55L184.82 351.55Q185.66 351.55 186.36 351.25Q187.06 350.95 187.56 350.37Q188.06 349.80 188.34 348.97Q188.62 348.14 188.62 347.09L188.62 347.09Q188.62 345.92 188.36 344.93Q188.09 343.93 187.56 343.20Q187.03 342.47 186.24 342.06Q185.45 341.65 184.39 341.65L184.39 341.65Q183.55 341.65 182.86 341.95Q182.16 342.24 181.66 342.81Q181.15 343.38 180.87 344.20Q180.59 345.03 180.59 346.08L180.59 346.08Q180.59 347.24 180.86 348.24Q181.12 349.25 181.65 349.98Q182.18 350.71 182.98 351.13Q183.77 351.55 184.82 351.55ZM200.67 344.11L200.67 351.33Q201.56 351.33 202.31 351.26Q203.06 351.18 203.62 351.08L203.62 351.08Q204.27 350.98 204.81 350.83L204.81 350.83L204.59 352.06Q204.50 352.05 204.31 352.05Q204.13 352.04 203.91 352.03Q203.69 352.02 203.44 352.02Q203.19 352.02 202.97 352.01Q202.75 352.01 202.58 352.00Q202.41 352 202.34 352L202.34 352L199.07 352L199.07 351.97Q199.11 351.81 199.16 351.58Q199.20 351.34 199.23 350.99Q199.26 350.65 199.27 350.16Q199.29 349.68 199.29 349.04L199.29 349.04L199.29 344.11Q199.29 343.47 199.27 342.99Q199.26 342.51 199.23 342.16Q199.20 341.81 199.16 341.57Q199.11 341.34 199.07 341.18L199.07 341.18L199.07 341.15L200.89 341.15L200.89 341.18Q200.84 341.34 200.80 341.57Q200.76 341.81 200.73 342.16Q200.70 342.51 200.68 342.99Q200.67 343.47 200.67 344.11L200.67 344.11ZM214.99 341.80L214.99 341.80Q214.97 342.65 214.96 343.44L214.96 343.44Q214.95 343.78 214.94 344.14Q214.94 344.49 214.94 344.84Q214.93 345.18 214.93 345.49Q214.93 345.81 214.93 346.05L214.93 346.05Q214.93 346.56 214.93 347.28Q214.94 348.00 214.95 348.75Q214.96 349.51 214.99 350.21Q215.01 350.90 215.04 351.36L215.04 351.36Q215.14 351.38 215.32 351.40Q215.50 351.42 215.70 351.43Q215.89 351.44 216.08 351.45Q216.27 351.46 216.40 351.46L216.40 351.46Q216.93 351.46 217.49 351.38Q218.04 351.31 218.56 351.11Q219.08 350.92 219.54 350.57Q220.00 350.23 220.34 349.68Q220.68 349.14 220.88 348.37Q221.08 347.60 221.08 346.56L221.08 346.56Q221.08 345.40 220.80 344.50Q220.52 343.59 219.98 342.97Q219.44 342.35 218.64 342.03Q217.84 341.71 216.80 341.71L216.80 341.71Q216.60 341.71 216.34 341.72Q216.08 341.73 215.83 341.74Q215.58 341.75 215.35 341.77Q215.13 341.79 214.99 341.80ZM213.33 341.15L213.33 341.12Q213.50 341.12 213.65 341.13L213.65 341.13Q213.78 341.14 213.92 341.14Q214.06 341.15 214.14 341.15L214.14 341.15Q214.28 341.15 214.62 341.13Q214.96 341.12 215.39 341.10Q215.82 341.09 216.28 341.07Q216.75 341.06 217.16 341.06L217.16 341.06Q218.26 341.06 219.25 341.33Q220.24 341.60 220.99 342.22Q221.74 342.84 222.18 343.85Q222.61 344.86 222.61 346.32L222.61 346.32Q222.61 347.38 222.38 348.22Q222.15 349.06 221.74 349.70Q221.32 350.34 220.74 350.80Q220.16 351.26 219.46 351.55Q218.76 351.85 217.97 351.98Q217.17 352.12 216.33 352.12L216.33 352.12Q216.02 352.12 215.60 352.10Q215.17 352.08 214.74 352.06Q214.30 352.04 213.92 352.02Q213.54 352 213.33 352L213.33 352L213.33 351.97Q213.37 351.81 213.42 351.58Q213.46 351.34 213.49 350.99Q213.52 350.65 213.53 350.16Q213.55 349.68 213.55 349.04L213.55 349.04L213.55 344.11Q213.55 343.47 213.53 342.98Q213.52 342.49 213.49 342.14Q213.46 341.79 213.42 341.55Q213.37 341.31 213.33 341.15L213.33 341.15ZM231.52 341.15L231.52 341.15Q232.47 341.15 233.40 341.14Q234.34 341.13 235.12 341.12Q235.90 341.11 236.45 341.09Q237.00 341.06 237.20 341.03L237.20 341.03L236.83 342.03Q236.58 341.96 236.25 341.91L236.25 341.91Q235.96 341.87 235.55 341.82Q235.13 341.78 234.60 341.78L234.60 341.78Q234.41 341.78 234.16 341.79Q233.91 341.81 233.67 341.82L233.67 341.82Q233.40 341.84 233.12 341.85L233.12 341.85L233.12 345.98Q233.90 345.98 234.53 345.94Q235.16 345.90 235.60 345.86L235.60 345.86Q236.11 345.82 236.50 345.76L236.50 345.76L236.27 346.85Q235.75 346.79 235.20 346.72L235.20 346.72Q234.73 346.67 234.18 346.63Q233.63 346.59 233.12 346.59L233.12 346.59L233.12 351.33Q234.01 351.33 234.76 351.26Q235.51 351.18 236.07 351.08L236.07 351.08Q236.72 350.98 237.26 350.83L237.26 350.83L237.04 352.06Q236.95 352.05 236.77 352.05Q236.59 352.04 236.36 352.03Q236.14 352.02 235.89 352.02Q235.65 352.02 235.43 352.01Q235.21 352.01 235.04 352.00Q234.87 352 234.79 352L234.79 352L231.52 352L231.52 351.97Q231.57 351.81 231.61 351.58Q231.65 351.34 231.68 350.99Q231.71 350.65 231.73 350.16Q231.74 349.68 231.74 349.04L231.74 349.04L231.74 344.11Q231.74 343.47 231.73 342.99Q231.71 342.51 231.68 342.16Q231.65 341.81 231.61 341.57Q231.57 341.34 231.52 341.18L231.52 341.18L231.52 341.15ZM246.19 341.15L246.68 341.15L254.47 349.44L254.47 344.11Q254.47 343.47 254.46 342.99Q254.44 342.51 254.41 342.16Q254.38 341.81 254.34 341.57Q254.30 341.34 254.25 341.18L254.25 341.18L254.25 341.15L255.60 341.15L255.60 341.18Q255.55 341.34 255.52 341.57Q255.48 341.81 255.45 342.16Q255.42 342.51 255.40 342.99Q255.39 343.47 255.39 344.11L255.39 344.11L255.39 352.15L255.12 352.15L247.33 343.86L247.33 349.04Q247.33 349.68 247.34 350.16Q247.36 350.65 247.39 350.99Q247.42 351.34 247.46 351.58Q247.49 351.81 247.54 351.97L247.54 351.97L247.54 352L246.19 352L246.19 351.97Q246.24 351.81 246.28 351.58Q246.32 351.34 246.35 350.99Q246.38 350.65 246.40 350.16Q246.41 349.68 246.41 349.04L246.41 349.04L246.41 344.11Q246.41 343.47 246.40 342.99Q246.38 342.51 246.35 342.16Q246.32 341.81 246.28 341.57Q246.24 341.34 246.19 341.18L246.19 341.18L246.19 341.15ZM278.21 344.11L278.21 351.33Q279.10 351.33 279.85 351.26Q280.60 351.18 281.16 351.08L281.16 351.08Q281.81 350.98 282.35 350.83L282.35 350.83L282.13 352.06Q282.04 352.05 281.85 352.05Q281.67 352.04 281.45 352.03Q281.23 352.02 280.98 352.02Q280.73 352.02 280.52 352.01Q280.30 352.01 280.13 352.00Q279.96 352 279.88 352L279.88 352L276.61 352L276.61 351.97Q276.66 351.81 276.70 351.58Q276.74 351.34 276.77 350.99Q276.80 350.65 276.81 350.16Q276.83 349.68 276.83 349.04L276.83 349.04L276.83 344.11Q276.83 343.47 276.81 342.99Q276.80 342.51 276.77 342.16Q276.74 341.81 276.70 341.57Q276.66 341.34 276.61 341.18L276.61 341.18L276.61 341.15L278.43 341.15L278.43 341.18Q278.38 341.34 278.34 341.57Q278.30 341.81 278.27 342.16Q278.24 342.51 278.23 342.99Q278.21 343.47 278.21 344.11L278.21 344.11ZM290.94 352L290.94 351.97Q290.98 351.81 291.02 351.58Q291.06 351.34 291.09 350.99Q291.12 350.65 291.13 350.16Q291.15 349.68 291.15 349.04L291.15 349.04L291.15 344.11Q291.15 343.47 291.13 342.99Q291.12 342.51 291.09 342.16Q291.06 341.81 291.02 341.57Q290.98 341.34 290.94 341.18L290.94 341.18L290.94 341.15L292.75 341.15L292.75 341.18Q292.70 341.34 292.66 341.57Q292.62 341.81 292.59 342.16Q292.56 342.51 292.55 342.99Q292.53 343.47 292.53 344.11L292.53 344.11L292.53 349.04Q292.53 349.68 292.55 350.16Q292.56 350.65 292.59 350.99Q292.62 351.34 292.66 351.58Q292.70 351.81 292.75 351.97L292.75 351.97L292.75 352L290.94 352ZM311.66 350.42L311.66 350.73Q311.66 350.81 311.64 350.90Q311.62 350.99 311.55 351.05L311.55 351.05Q311.21 351.31 310.82 351.53Q310.42 351.74 309.96 351.90Q309.50 352.06 308.96 352.15Q308.43 352.23 307.82 352.23L307.82 352.23Q306.44 352.23 305.30 351.83Q304.17 351.42 303.35 350.68Q302.54 349.94 302.09 348.90Q301.65 347.86 301.65 346.59L301.65 346.59Q301.65 345.87 301.83 345.17Q302.02 344.48 302.37 343.85Q302.73 343.22 303.25 342.69Q303.77 342.17 304.44 341.78Q305.11 341.40 305.92 341.18Q306.73 340.97 307.66 340.97L307.66 340.97Q308.03 340.97 308.41 341.00Q308.78 341.03 309.16 341.10Q309.53 341.16 309.87 341.25Q310.21 341.34 310.52 341.46L310.52 341.46L311.04 342.86L310.98 342.89Q310.68 342.62 310.30 342.40Q309.91 342.17 309.47 342.00Q309.03 341.84 308.55 341.74Q308.07 341.65 307.58 341.65L307.58 341.65Q306.63 341.65 305.83 341.95Q305.04 342.24 304.47 342.81Q303.90 343.38 303.58 344.20Q303.26 345.03 303.26 346.08L303.26 346.08Q303.26 347.24 303.56 348.23Q303.86 349.22 304.46 349.95Q305.06 350.68 305.96 351.09Q306.85 351.50 308.05 351.50L308.05 351.50Q308.58 351.50 309.00 351.42Q309.41 351.33 309.70 351.21Q309.99 351.08 310.14 350.94Q310.28 350.79 310.28 350.67L310.28 350.67L310.28 350.37Q310.28 349.84 310.27 349.46Q310.25 349.07 310.22 348.79Q310.19 348.50 310.15 348.30Q310.12 348.09 310.06 347.92L310.06 347.92L310.06 347.89L311.88 347.89L311.88 347.92Q311.83 348.08 311.79 348.30Q311.75 348.51 311.72 348.81Q311.69 349.10 311.68 349.50Q311.66 349.90 311.66 350.42L311.66 350.42ZM328.25 349.04L328.25 346.81Q327.95 346.80 327.49 346.80Q327.04 346.79 326.51 346.79Q325.97 346.78 325.39 346.77Q324.81 346.77 324.26 346.77Q323.71 346.76 323.21 346.77Q322.71 346.78 322.34 346.79L322.34 346.79L322.34 349.04Q322.34 349.68 322.36 350.16Q322.38 350.65 322.40 350.99Q322.43 351.34 322.47 351.58Q322.51 351.81 322.56 351.97L322.56 351.97L322.56 352L320.74 352L320.74 351.97Q320.79 351.81 320.83 351.58Q320.87 351.34 320.90 350.99Q320.93 350.65 320.95 350.16Q320.96 349.68 320.96 349.04L320.96 349.04L320.96 344.11Q320.96 343.47 320.95 342.99Q320.93 342.51 320.90 342.16Q320.87 341.81 320.83 341.57Q320.79 341.34 320.74 341.18L320.74 341.18L320.74 341.15L322.56 341.15L322.56 341.18Q322.51 341.34 322.47 341.57Q322.43 341.81 322.40 342.16Q322.38 342.51 322.36 342.99Q322.34 343.47 322.34 344.11L322.34 344.11L322.34 346.05Q322.73 346.07 323.23 346.07Q323.73 346.07 324.28 346.07Q324.82 346.07 325.39 346.06Q325.95 346.05 326.48 346.04Q327.00 346.03 327.46 346.01Q327.92 346.00 328.25 345.98L328.25 345.98L328.25 344.11Q328.25 343.47 328.23 342.99Q328.21 342.51 328.19 342.16Q328.16 341.81 328.12 341.57Q328.08 341.34 328.03 341.18L328.03 341.18L328.03 341.15L329.85 341.15L329.85 341.18Q329.80 341.34 329.76 341.57Q329.72 341.81 329.69 342.16Q329.66 342.51 329.64 342.99Q329.63 343.47 329.63 344.11L329.63 344.11L329.63 349.04Q329.63 349.68 329.64 350.16Q329.66 350.65 329.69 350.99Q329.72 351.34 329.76 351.58Q329.80 351.81 329.85 351.97L329.85 351.97L329.85 352L328.03 352L328.03 351.97Q328.08 351.81 328.12 351.58Q328.16 351.34 328.19 350.99Q328.21 350.65 328.23 350.16Q328.25 349.68 328.25 349.04L328.25 349.04ZM342.00 349.04L342.00 341.81Q341.10 341.81 340.38 341.89Q339.66 341.97 339.14 342.06L339.14 342.06Q338.54 342.18 338.06 342.31L338.06 342.31L338.28 341.09Q338.37 341.09 338.55 341.10Q338.73 341.11 338.96 341.12Q339.18 341.12 339.43 341.13Q339.67 341.13 339.89 341.14Q340.11 341.14 340.28 341.14Q340.45 341.15 340.53 341.15L340.53 341.15L344.85 341.15Q344.92 341.15 345.09 341.14Q345.26 341.14 345.48 341.14Q345.70 341.13 345.95 341.13Q346.20 341.12 346.42 341.12Q346.64 341.11 346.82 341.10Q347.01 341.09 347.10 341.09L347.10 341.09L347.32 342.31Q346.83 342.18 346.23 342.06L346.23 342.06Q345.70 341.97 344.98 341.89Q344.27 341.81 343.37 341.81L343.37 341.81L343.37 349.04Q343.37 349.68 343.39 350.16Q343.41 350.65 343.44 350.99Q343.46 351.34 343.51 351.58Q343.55 351.81 343.59 351.97L343.59 351.97L343.59 352L341.78 352L341.78 351.97Q341.83 351.81 341.87 351.58Q341.90 351.34 341.93 350.99Q341.97 350.65 341.98 350.16Q342.00 349.68 342.00 349.04L342.00 349.04Z" fill="url(#lux)"></path></svg>